# xmcd
#
# Track frame offsets: 
#        150
#        11509
#        25534
#        38404
#        50387
#        65156
#        74766
#        82980
#        94980
#        106568
#        123746
#        137124
#        149799
#        161197
#        178277
#        201069
#
# Disc length: 2856 seconds
#
# Revision: 0
# Processed by: cddbd v1.5.2PL0 Copyright (c) Steve Scherf et al.
# Submitted via: ExactAudioCopy v0.99pb4
#
DISCID=e80b2610
DTITLE=Etta James - The Inspirational Collection
DYEAR=2009
DGENRE=Blues
TTITLE0=I Saw The Light
TTITLE1=Down By The Riverside
TTITLE2=Swing Low Sweet Chariot
TTITLE3=I'll Make It Alright
TTITLE4=To My Father's House
TTITLE5=Jesus Is My Kind Of People
TTITLE6=Old Time Religion
TTITLE7=He's Got The Whole World In His Hands
TTITLE8=Let's All Go Down To The River
TTITLE9=Walk All Over God's Heaven
TTITLE10=(We'll Fly You To) The Promised Land
TTITLE11=I'll Fly Away From Here
TTITLE12=Jesus Lover Over My Soul
TTITLE13=Storms Of Troubled Times
TTITLE14=Lord, Don't Move That Mountain
TTITLE15=Amen - This Little Light Of Mine
EXTD=
EXTT0=
EXTT1=
EXTT2=
EXTT3=
EXTT4=
EXTT5=
EXTT6=
EXTT7=
EXTT8=
EXTT9=
EXTT10=
EXTT11=
EXTT12=
EXTT13=
EXTT14=
EXTT15=
PLAYORDER=
